# AST/ASF file generated using VICON BodyLanguage
# -----------------------------------------------
:version 1.10
:name VICON
:units
  mass 1.0
  length 0.45
  angle deg
:documentation
   .ast/.asf automatically generated from VICON data using
   VICON BodyBuilder and BodyLanguage model FoxedUp or BRILLIANT.MOD
:root
   order TX TY TZ RX RY RZ
   axis XYZ
   position 0 0 0  
   orientation 0 0 0 
:bonedata
  begin
     id 1 
     name lhipjoint
     direction 0.541323 -0.757556 0.364798 
     length 2.47576 
     axis 0 0 0  XYZ
  end
  begin
     id 2 
     name lfemur
     direction 0.34202 -0.939693 0  
     length 7.46493  
     axis 0 0 20  XYZ
    dof rx ry rz
    limits (-160.0 20.0)
           (-70.0 70.0)
           (-60.0 70.0)
  end
  begin
     id 3 
     name ltibia
     direction 0.34202 -0.939693 0   
     length 7.73805   
     axis 0 0 20   XYZ
    dof rx
    limits (-10.0 170.0)
  end
  begin
     id 4 
     name lfoot
     direction 0.107174 -0.294458 0.949636   
     length 2.25864   
     axis -90 7.62852e-016 20   XYZ
    dof rx rz
    limits (-45.0 90.0)
           (-70.0 20.0)
  end
  begin
     id 5 
     name ltoes
     direction 1.53606e-011 -4.21934e-011 1   
     length 1.12451   
     axis -90 7.62852e-016 20   XYZ
    dof rx
    limits (-90.0 20.0)
  end
  begin
     id 6 
     name rhipjoint
     direction -0.524745 -0.766967 0.36933   
     length 2.44538  
     axis 0 0 0  XYZ 
  end
  begin
     id 7 
     name rfemur
     direction -0.34202 -0.939693 0   
     length 7.61604   
     axis 0 0 -20   XYZ
    dof rx ry rz
    limits (-160.0 20.0)
           (-70.0 70.0)
           (-70.0 60.0)
  end
  begin
     id 8 
     name rtibia
     direction -0.34202 -0.939693 0   
     length 7.61056   
     axis 0 0 -20   XYZ
    dof rx
    limits (-10.0 170.0)
 end
 begin
     id 9 
     name rfoot
     direction -0.12616 -0.346623 0.929482   
     length 2.46372  
     axis -90 -7.62852e-016 -20   XYZ
    dof rx rz
    limits (-45.0 90.0)
           (-20.0 70.0)
  end
  begin
     id 10 
     name rtoes
     direction -1.53531e-011 -4.22004e-011 1   
     length 1.21611   
     axis -90 -7.62852e-016 -20   XYZ
    dof rx
    limits (-90.0 20.0)
  end
  begin
     id 11 
     name lowerback
     direction -0.000778023 0.997293 -0.0735223   
     length 2.06139   
     axis 0 0 0   XYZ
    dof rx ry rz
    limits (-20.0 45.0)
           (-30.0 30.0)
           (-30.0 30.0)
  end
  begin
     id 12 
     name upperback
     direction 0.0222598 0.999722 -0.0078355   
     length 2.06383   
     axis 0 0 0   XYZ
    dof rx ry rz
    limits (-20.0 45.0)
           (-30.0 30.0)
           (-30.0 30.0)
  end
  begin
     id 13 
     name thorax
     direction 0.0219654 0.999405 0.0265994   
     length 2.07163   
     axis 0 0 0   XYZ
    dof rx ry rz
    limits (-20.0 45.0)
           (-30.0 30.0)
           (-30.0 30.0)
  end
  begin
     id 14 
     name lowerneck
     direction 0.0213282 0.988147 0.15202   
     length 1.75969   
     axis 0 0 0   XYZ
    dof rx ry rz
    limits (-20.0 45.0)
           (-30.0 30.0)
           (-30.0 30.0)
  end
  begin
     id 15 
     name upperneck
     direction -0.0546456 0.982624 -0.177379   
     length 1.79244   
     axis 0 0 0   XYZ
    dof rx ry rz
    limits (-20.0 45.0)
           (-30.0 30.0)
           (-30.0 30.0)
  end
  begin
     id 16
     name head
     direction -0.0199987 0.996855 -0.076686  
     length 1.80555  
     axis 0 0 0   XYZ
    dof rx ry rz
    limits (-20.0 45.0)
           (-30.0 30.0)
           (-30.0 30.0)
  end
  begin
     id 17 
     name lclavicle
     direction 0.929565 0.363219 -0.063096  
     length 3.55722  
     axis 0 0 0   XYZ
    dof ry rz
    limits (-20.0 10.0)
           (0.0 20.0)
  end
  begin
     id 18 
     name lhumerus
     direction 1 -4.48993e-011 -2.36203e-027   
     length 4.92785   
     axis 180 -30 -90   XYZ
    dof rx ry rz
    limits (-60.0 90.0)
           (-90.0 90.0)
           (-90.0 90.0)
  end
  begin
     id 19
     name lradius
     direction 1 -4.48947e-011 2.02997e-027   
     length 3.44052   
     axis 180 -30 -90   XYZ
    dof rx
    limits (-10.0 170.0)
  end
  begin
     id 20
     name lwrist
     direction 1 -4.48962e-011 1.45991e-027   
     length 1.72026   
     axis 1.49639e-024 90 90   XYZ
    dof ry
    limits (-180.0 0.0)
 end
  begin
     id 21 
     name lhand
     direction 1 -4.48984e-011 2.91906e-027   
     length 0.654326   
     axis -1.863e-015 90 90   XYZ
    dof rx rz
    limits (-90.0 90.0)
           (-45.0 45.0)
  end
  begin
     id 22 
     name lfingers
     direction 1 -4.48961e-011 5.83968e-027   
     length 0.527534   
     axis -3.72598e-015 90 90   XYZ
    dof rx
    limits (0.0 90.0)
  end
  begin
     id 23
     name lthumb
     direction 0.707107 -6.34963e-011 0.707107   
     length 0.757437   
     axis -90 45 -6.68868e-015   XYZ
    dof rx rz
    limits (-45.0 45.0)
           (-45.0 45.0)
  end
  begin
     id 24 
     name rclavicle
     direction -0.902944 0.422599 -0.0781198   
     length 3.54432  
     axis 0 0 0   XYZ 
    dof ry rz
    limits (-10.0 20.0)
           (-20.0 0.0)
  end
  begin
     id 25 
     name rhumerus
     direction -1 -4.48953e-011 -4.75835e-028  
     length 5.09181   
     axis 180 30 90   XYZ
    dof rx ry rz
    limits (-90.0 60.0)
           (-90.0 90.0)
           (-90.0 90.0)
  end
  begin
     id 26 
     name rradius
     direction -1 -4.48986e-011 -3.25889e-027   
     length 3.49865   
     axis 180 30 90   XYZ
    dof rx
    limits (-10.0 170.0)
  end
  begin
     id 27 
     name rwrist
     direction -1 -4.48963e-011 1.45989e-027   
     length 1.74933   
     axis 1.49639e-024 -90 -90   XYZ
    dof ry
    limits (-180.0 0.0)
  end
  begin
     id 28
     name rhand
     direction -1 -4.49003e-011 2.91844e-027   
     length 0.66641   
     axis -1.863e-015 -90 -90   XYZ
    dof rx rz
    limits (-90.0 90.0)
           (-45.0 45.0)
  end
  begin
     id 29
     name rfingers
     direction -1 -4.48973e-011 5.83886e-027   
     length 0.537277   
     axis -3.72598e-015 -90 -90   XYZ
    dof rx
    limits (0.0 90.0)
  end
  begin
     id 30
     name rthumb
     direction -0.707107 -6.34976e-011 0.707107   
     length 0.771425   
     axis -90 -45 6.68868e-015   XYZ
    dof rx rz
    limits (-45.0 45.0)
           (-45.0 45.0)
  end
:hierarchy
  begin
    root lhipjoint rhipjoint lowerback
    lhipjoint lfemur
    lfemur ltibia
    ltibia lfoot
    lfoot ltoes
    rhipjoint rfemur
    rfemur rtibia
    rtibia rfoot
    rfoot rtoes
    lowerback upperback
    upperback thorax
    thorax lowerneck lclavicle rclavicle
    lowerneck upperneck
    upperneck head
    lclavicle lhumerus
    lhumerus lradius
    lradius lwrist
    lwrist lhand lthumb
    lhand lfingers
    rclavicle rhumerus
    rhumerus rradius
    rradius rwrist
    rwrist rhand rthumb
    rhand rfingers
  end

#!OML:ASF H:\LiuWeirdWalks\Patient Classification 1\Patient 1\Session 1\male.ASF
:FULLY-SPECIFIED
:DEGREES
1
root -0.261446 17.932 -30.1766 2.65761 12.6962 -1.75481
lowerback 2.31744 -1.99483 -1.36656
upperback 0.913959 -2.65759 6.08457
thorax -0.00195335 -1.35332 7.15516
lowerneck -22.1548 1.52814 2.06834
upperneck 26.9143 5.20955 -11.7569
head 13.1767 0.908088 -4.03245
rclavicle 1.90833e-014 4.77083e-014
rhumerus -18.2204 -28.6998 -20.4456
rradius 22.9393
rwrist 2.97457
rhand -20.7056 -2.22042
rfingers 7.12502
rthumb 5.65858 -32.1249
lclavicle 1.90833e-014 4.77083e-014
lhumerus -30.4558 26.2722 34.014
lradius 23.0969
lwrist -3.02553
lhand -11.4681 2.16402
lfingers 7.12502
lthumb 14.5695 31.6323
rfemur -4.47583 -1.57057 17.1285
rtibia 25.6591
rfoot -12.6471 -27.6508
rtoes -4.10507
lfemur -8.34438 -3.84051 -14.2465
ltibia 25.1081
lfoot -11.8606 10.4591
ltoes -10.505
2
root -0.262089 17.9325 -30.1747 2.67766 12.5964 -1.70355
lowerback 2.33425 -1.7269 -1.8979
upperback 0.699891 -2.30086 6.2765
thorax -0.250542 -1.16574 7.67028
lowerneck -21.7836 1.19556 2.24834
upperneck 27.2093 4.77451 -12.0245
head 13.1927 0.705305 -4.25942
rclavicle -5.96354e-016 6.36111e-015
rhumerus -18.9779 -28.5143 -18.6683
rradius 23.2107
rwrist 2.81661
rhand -20.9583 -2.24319
rfingers 7.12502
rthumb 5.41462 -32.154
lclavicle -5.96354e-016 6.36111e-015
lhumerus -29.906 26.986 33.4517
lradius 22.8462
lwrist -3.21407
lhand -11.4588 1.85118
lfingers 7.12502
lthumb 14.5785 31.3188
rfemur -4.51187 -1.50954 17.0699
rtibia 25.6962
rfoot -12.7217 -27.6501
rtoes -4.14276
lfemur -8.29209 -3.86529 -14.3105
ltibia 25.042
lfoot -11.7959 10.5564
ltoes -10.6296
3
root -0.257351 17.9309 -30.1686 2.69273 12.5725 -1.51403
lowerback 2.23007 -2.12241 -1.433
upperback 1.02241 -2.83727 5.97161
thorax 0.180563 -1.45008 7.06822
lowerneck -22.6974 1.50814 1.88596
upperneck 27.374 5.22442 -11.4937
head 13.4684 0.899291 -3.92009
rclavicle 2.78299e-014 -2.70347e-014
rhumerus -17.4862 -29.6809 -19.3275
rradius 23.0257
rwrist 3.38304
rhand -21.0567 -1.76704
rfingers 7.12502
rthumb 5.31964 -31.6803
lclavicle 2.78299e-014 -2.70347e-014
lhumerus -30.3282 27.3515 31.8941
lradius 23.396
lwrist -2.00063
lhand -12.3209 2.53085
lfingers 7.12502
lthumb 13.7477 32.0567
rfemur -4.47425 -1.74448 16.7997
rtibia 25.7347
rfoot -12.6643 -27.3843
rtoes -4.24974
lfemur -8.18678 -3.90532 -14.5486
ltibia 24.9897
lfoot -11.7767 10.6278
ltoes -10.5217
4
root -0.259941 17.9313 -30.1679 2.70188 12.4679 -1.54187
lowerback 2.25355 -2.09664 -1.47038
upperback 1.00255 -2.80234 5.99919
thorax 0.145543 -1.43174 7.12051
lowerneck -22.6903 1.47369 1.92083
upperneck 27.593 5.17733 -11.4681
head 13.5539 0.880134 -3.93512
rclavicle -9.93923e-016 1.43125e-014
rhumerus -17.3933 -29.6361 -18.7481
rradius 23.2499
rwrist 3.06563
rhand -21.5277 -2.00547
rfingers 7.12502
rthumb 4.86479 -31.9296
lclavicle -9.93923e-016 1.43125e-014
lhumerus -30.189 27.2977 31.3041
lradius 23.6955
lwrist -1.40408
lhand -12.7556 2.32704
lfingers 7.12502
lthumb 13.3288 31.8808
rfemur -4.52085 -1.65688 16.8416
rtibia 25.7681
rfoot -12.7081 -27.3801
rtoes -4.24963
lfemur -8.16095 -3.82095 -14.5067
ltibia 24.9449
lfoot -11.7736 10.6372
ltoes -10.5496
5
root -0.260314 17.9312 -30.1659 2.71278 12.3922 -1.49847
lowerback 2.23102 -2.14725 -1.43848
upperback 1.04616 -2.87199 5.9514
thorax 0.208381 -1.46871 7.04957
lowerneck -22.8411 1.49112 1.90606
upperneck 27.8013 5.20011 -11.3653
head 13.6711 0.891689 -3.89856
rclavicle -1.63003e-014 7.95139e-015
rhumerus -17.0917 -29.8232 -18.3541
rradius 23.3928
rwrist 2.95398
rhand -21.8227 -1.9692
rfingers 7.12502
rthumb 4.57993 -31.8997
lclavicle -1.63003e-014 7.95139e-015
lhumerus -30.13 27.402 30.5063
lradius 23.9973
lwrist -0.747136
lhand -13.2882 2.38178
lfingers 7.12502
lthumb 12.8154 31.9684
rfemur -4.54406 -1.66572 16.7834
rtibia 25.8057
rfoot -12.7157 -27.3032
rtoes -4.28998
lfemur -8.11463 -3.78384 -14.5566
ltibia 24.902
lfoot -11.7589 10.6698
ltoes -10.5484
6
root -0.261046 17.9311 -30.1643 2.71885 12.3177 -1.46506
lowerback 2.2076 -2.19029 -1.39
upperback 1.0726 -2.93043 5.88488
thorax 0.250379 -1.49894 6.94931
lowerneck -22.8935 1.51595 1.96722
upperneck 27.998 5.20889 -11.2869
head 13.764 0.905798 -3.88599
rclavicle -1.80894e-014 -1.59028e-015
rhumerus -16.8719 -29.9438 -17.9931
rradius 23.5548
rwrist 2.8051
rhand -22.1072 -1.92725
rfingers 7.12502
rthumb 4.30522 -31.8635
lclavicle -1.80894e-014 -1.59028e-015
lhumerus -30.0535 27.3261 29.782
lradius 24.3375
lwrist -0.0172055
lhand -13.8456 2.4447
lfingers 7.12502
lthumb 12.278 32.0643
rfemur -4.56153 -1.66635 16.7392
rtibia 25.8318
rfoot -12.7091 -27.2356
rtoes -4.33396
lfemur -8.08045 -3.73999 -14.5938
ltibia 24.8837
lfoot -11.7567 10.6988
ltoes -10.5468
7
root -0.262509 17.931 -30.1635 2.72127 12.2481 -1.44382
lowerback 2.18454 -2.19433 -1.38465
upperback 1.04826 -2.9354 5.82002
thorax 0.23489 -1.50029 6.87657
lowerneck -22.7338 1.51552 2.15955
upperneck 28.1545 5.14929 -11.291
head 13.7944 0.901485 -3.93852
rclavicle 4.85035e-014 -3.65764e-014
rhumerus -16.8654 -29.9173 -17.5382
rradius 23.7583
rwrist 2.59029
rhand -22.3877 -1.91478
rfingers 7.12502
rthumb 4.03441 -31.8563
lclavicle 4.85035e-014 -3.65764e-014
lhumerus -29.8924 27.1113 29.1732
lradius 24.6576
lwrist 0.667608
lhand -14.3769 2.49259
lfingers 7.12502
lthumb 11.7657 32.1421
rfemur -4.58331 -1.6505 16.7143
rtibia 25.8618
rfoot -12.7074 -27.1885
rtoes -4.36701
lfemur -8.05156 -3.6957 -14.6145
ltibia 24.8667
lfoot -11.7516 10.7222
ltoes -10.5543
8
root -0.264661 17.9311 -30.1637 2.72177 12.1861 -1.43528
lowerback 2.15507 -2.18819 -1.36595
upperback 1.03325 -2.92694 5.74958
thorax 0.229898 -1.49515 6.78961
lowerneck -22.5561 1.51076 2.38009
upperneck 28.2884 5.07388 -11.3064
head 13.8106 0.893345 -4.00228
rclavicle -2.0276e-014 1.90833e-014
rhumerus -16.9041 -29.9022 -17.1071
rradius 23.9663
rwrist 2.33597
rhand -22.6694 -1.90927
rfingers 7.12502
rthumb 3.76232 -31.8558
lclavicle -2.0276e-014 1.90833e-014
lhumerus -29.6669 26.8758 28.6449
lradius 24.9743
lwrist 1.33122
lhand -14.899 2.56111
lfingers 7.12502
lthumb 11.2621 32.2388
rfemur -4.60963 -1.61974 16.7091
rtibia 25.8917
rfoot -12.7075 -27.1614
rtoes -4.38893
lfemur -8.03572 -3.65834 -14.6185
ltibia 24.8593
lfoot -11.743 10.7465
ltoes -10.5653
9
root -0.267394 17.9312 -30.1646 2.71987 12.1264 -1.4396
lowerback 2.12035 -2.17324 -1.34119
upperback 1.01572 -2.90654 5.67613
thorax 0.223288 -1.48386 6.69577
lowerneck -22.3215 1.50036 2.63106
upperneck 28.3757 4.97771 -11.3343
head 13.7933 0.880931 -4.07735
rclavicle -4.29375e-014 2.06736e-014
rhumerus -16.9862 -29.961 -16.6834
rradius 24.1498
rwrist 2.18987
rhand -22.9155 -1.88475
rfingers 7.12502
rthumb 3.52473 -31.8354
lclavicle -4.29375e-014 2.06736e-014
lhumerus -29.3988 26.5962 28.1879
lradius 25.2857
lwrist 1.97688
lhand -15.3955 2.63207
lfingers 7.12502
lthumb 10.7833 32.3353
rfemur -4.64046 -1.57649 16.7224
rtibia 25.9222
rfoot -12.7084 -27.1519
rtoes -4.40807
lfemur -8.02945 -3.62772 -14.6068
ltibia 24.8606
lfoot -11.7334 10.7769
ltoes -10.5848
10
root -0.270791 17.9315 -30.1663 2.71841 12.072 -1.45639
lowerback 2.0911 -2.15906 -1.31061
upperback 1.02676 -2.88804 5.62226
thorax 0.24421 -1.4747 6.61908
lowerneck -22.1834 1.49691 2.8544
upperneck 28.4795 4.90613 -11.3629
head 13.8057 0.87289 -4.14541
rclavicle 1.39149e-014 -3.97569e-014
rhumerus -17.0194 -30.0203 -16.3118
rradius 24.3379
rwrist 1.95248
rhand -23.1682 -1.91326
rfingers 7.12502
rthumb 3.28062 -31.8678
lclavicle 1.39149e-014 -3.97569e-014
lhumerus -29.1098 26.3849 27.8114
lradius 25.5961
lwrist 2.58897
lhand -15.8396 2.7056
lfingers 7.12502
lthumb 10.3549 32.4306
rfemur -4.6783 -1.5221 16.7542
rtibia 25.953
rfoot -12.7137 -27.1579
rtoes -4.41038
lfemur -8.03585 -3.60033 -14.5787
ltibia 24.8682
lfoot -11.7229 10.806
ltoes -10.6067
11
root -0.27435 17.9318 -30.1681 2.71808 12.0154 -1.48123
lowerback 2.06381 -2.14726 -1.28019
upperback 1.05043 -2.87317 5.58826
thorax 0.278671 -1.46797 6.56351
lowerneck -22.102 1.49062 3.02517
upperneck 28.624 4.85009 -11.3745
head 13.8476 0.865617 -4.19735
rclavicle -1.8487e-014 3.49861e-014
rhumerus -17.0052 -30.1129 -15.976
rradius 24.5076
rwrist 1.71227
rhand -23.4033 -1.95403
rfingers 7.12502
rthumb 3.05361 -31.9119
lclavicle -1.8487e-014 3.49861e-014
lhumerus -28.8369 26.2409 27.4857
lradius 25.8973
lwrist 3.11579
lhand -16.2108 2.76403
lfingers 7.12502
lthumb 9.99681 32.5066
rfemur -4.72199 -1.46702 16.7954
rtibia 25.9844
rfoot -12.713 -27.1618
rtoes -4.41115
lfemur -8.0479 -3.57234 -14.5415
ltibia 24.8789
lfoot -11.7134 10.8377
ltoes -10.6287
12
root -0.277746 17.9322 -30.1698 2.71765 11.9578 -1.50485
lowerback 2.04833 -2.14427 -1.25683
upperback 1.09907 -2.87098 5.58157
thorax 0.33574 -1.4687 6.54109
lowerneck -22.1523 1.48913 3.11545
upperneck 28.835 4.832 -11.3636
head 13.9485 0.863718 -4.2243
rclavicle -3.95581e-014 6.36111e-015
rhumerus -16.9052 -30.2098 -15.6847
rradius 24.6599
rwrist 1.48701
rhand -23.5743 -1.96506
rfingers 7.12502
rthumb 2.88848 -31.9252
lclavicle -3.95581e-014 6.36111e-015
lhumerus -28.5996 26.1778 27.2202
lradius 26.1974
lwrist 3.58109
lhand -16.5189 2.80929
lfingers 7.12502
lthumb 9.69956 32.566
rfemur -4.76524 -1.42266 16.8327
rtibia 26.0163
rfoot -12.7118 -27.1566
rtoes -4.41311
lfemur -8.05707 -3.54293 -14.507
ltibia 24.8892
lfoot -11.7059 10.8691
ltoes -10.6522
13
root -0.28086 17.9326 -30.1708 2.71769 11.8967 -1.52106
lowerback 2.04325 -2.15446 -1.24514
upperback 1.15005 -2.88659 5.59307
thorax 0.393177 -1.47864 6.54526
lowerneck -22.2701 1.49121 3.14281
upperneck 29.1367 4.84751 -11.3356
head 14.106 0.86794 -4.23295
rclavicle 1.27222e-014 -1.11319e-014
rhumerus -16.737 -30.2875 -15.4413
rradius 24.7933
rwrist 1.2948
rhand -23.652 -1.90062
rfingers 7.12502
rthumb 2.81344 -31.8618
lclavicle 1.27222e-014 -1.11319e-014
lhumerus -28.4201 26.2117 26.9634
lradius 26.4682
lwrist 3.94985
lhand -16.7369 2.80009
lfingers 7.12502
lthumb 9.48923 32.5664
rfemur -4.80571 -1.39446 16.858
rtibia 26.0495
rfoot -12.7099 -27.1305
rtoes -4.41316
lfemur -8.05878 -3.50955 -14.4821
ltibia 24.896
lfoot -11.6998 10.9009
ltoes -10.678
14
root -0.28364 17.9327 -30.1711 2.71495 11.832 -1.52834
lowerback 2.04884 -2.16796 -1.23779
upperback 1.19966 -2.9065 5.6061
thorax 0.444069 -1.49062 6.55409
lowerneck -22.426 1.49096 3.13145
upperneck 29.5197 4.87419 -11.2805
head 14.3083 0.873771 -4.22666
rclavicle 4.21423e-014 -1.27222e-014
rhumerus -16.5491 -30.3712 -15.2327
rradius 24.9009
rwrist 1.17402
rhand -23.6714 -1.78288
rfingers 7.12502
rthumb 2.7947 -31.7443
lclavicle 4.21423e-014 -1.27222e-014
lhumerus -28.2594 26.2627 26.7349
lradius 26.7193
lwrist 4.27036
lhand -16.8785 2.77101
lfingers 7.12502
lthumb 9.35254 32.5435
rfemur -4.83852 -1.37808 16.8697
rtibia 26.0835
rfoot -12.7076 -27.0901
rtoes -4.42034
lfemur -8.04856 -3.47063 -14.4687
ltibia 24.8977
lfoot -11.6924 10.9324
ltoes -10.7146
